<svg xmlns="http://www.w3.org/2000/svg" width="18" height="18" viewBox="0 0 18 18">
    <g>
        <path fill="#161616" d="M4.086 15a4.22 4.22 0 0 1-3.342-1.167 4.212 4.212 0 0 1-.655-3.474l.571-4.4a3.538 3.538 0 0 1 1-1.97 2.544 2.544 0 0 1 1.769-.7 3.7 3.7 0 0 1 7.35 0h.054c1.347 0 2.412 1.035 2.779 2.7l.589 4.55a4.043 4.043 0 0 1-.813 3.247A4.178 4.178 0 0 1 10.159 15zM1.737 6.125l-.567 4.384a3.206 3.206 0 0 0 .41 2.619 3.138 3.138 0 0 0 2.506.786h6.073a3.068 3.068 0 0 0 2.429-.869A3.094 3.094 0 0 0 13.1 10.5l-.558-4.325c-.25-1.127-.887-1.8-1.705-1.8h-7.4c-.86-.002-1.495.652-1.7 1.75zm7.948-2.838a2.606 2.606 0 0 0-5.151 0zM9.24 7.473a.543.543 0 0 1-.074-1.081h.107a.543.543 0 0 1 .074 1.081h-.074zm-4.24 0a.543.543 0 0 1-.074-1.081h.107a.543.543 0 0 1 .074 1.081h-.074z" transform="translate(1.875 1.5)"/>
    </g>
</svg>
