<svg xmlns="http://www.w3.org/2000/svg" width="24" height="24" viewBox="0 0 24 24">
    <g>
        <path fill="#02a0a4" d="M15.159 18.086a1.515 1.515 0 1 1 1.516 1.514 1.516 1.516 0 0 1-1.516-1.514zm-11.251 0A1.514 1.514 0 1 1 5.422 19.6a1.515 1.515 0 0 1-1.514-1.514zm1.681-3.1a2.568 2.568 0 0 1-2.525-2.176l-.019-.164L2.131 1.75l-1.51-.26A.752.752 0 0 1 0 .724l.01-.1A.749.749 0 0 1 .749 0h.027l.1.01 2.08.36a.749.749 0 0 1 .6.566l.018.111.235 2.8h14.1a2.07 2.07 0 0 1 1.531.666 2.1 2.1 0 0 1 .554 1.573l-.016.151-.949 6.563a2.564 2.564 0 0 1-2.363 2.182l-.164.005zM4.54 12.521a1.055 1.055 0 0 0 .933.959l.116.006H16.5a1.054 1.054 0 0 0 1.019-.787l.023-.117.95-6.558a.592.592 0 0 0-.5-.669l-.088-.007H3.938zm7.585-3.476a.75.75 0 0 1-.1-1.493l.1-.007H14.9a.751.751 0 0 1 .1 1.494l-.1.006z" transform="translate(2 2.5)"/>
    </g>
</svg>
