<svg xmlns="http://www.w3.org/2000/svg" width="18" height="18" viewBox="0 0 18 18">
    <g>
        <path fill="#161616" d="M5.636 14.762l-.045-.036-.31-.209a15.569 15.569 0 0 1-3.4-3.192l-.237-.31A8.025 8.025 0 0 1 0 6.395v-.214A6.384 6.384 0 0 1 6.375 0h.217a6.387 6.387 0 0 1 6.158 6.415v.077a9.066 9.066 0 0 1-2.79 5.919 15.878 15.878 0 0 1-2.809 2.321l-.037.031a1.267 1.267 0 0 1-1.479 0zm.577-13.621a5.249 5.249 0 0 0-5.078 5.234l.014.268a6.89 6.89 0 0 0 1.4 3.686 14.378 14.378 0 0 0 3.677 3.453l.061.047a.135.135 0 0 0 .179 0l.063-.048a14.713 14.713 0 0 0 2.611-2.157 7.949 7.949 0 0 0 2.475-5.143v-.249a5.248 5.248 0 0 0-5.22-5.094zM3.946 6.487a2.429 2.429 0 1 1 2.429 2.436 2.435 2.435 0 0 1-2.429-2.436zm1.135 0a1.294 1.294 0 1 0 1.294-1.3 1.3 1.3 0 0 0-1.294 1.3z" transform="translate(2.625 1.5)"/>
    </g>
</svg>
