<svg xmlns="http://www.w3.org/2000/svg" width="24" height="24" viewBox="0 0 24 24">
    <g>
        <path fill="rgba(22,22,22,0.6)" d="M18.82 19.859l-.083-.07-3.128-3.05a9.7 9.7 0 0 1-6 2.06A9.518 9.518 0 0 1 0 9.4 9.518 9.518 0 0 1 9.611 0a9.518 9.518 0 0 1 9.612 9.4 9.25 9.25 0 0 1-2.531 6.349l3.091 3.014a.714.714 0 0 1 0 1.024.753.753 0 0 1-.964.071zM1.48 9.4a8.052 8.052 0 0 0 8.131 7.952A8.052 8.052 0 0 0 17.743 9.4a8.052 8.052 0 0 0-8.132-7.952A8.052 8.052 0 0 0 1.48 9.4z" transform="translate(2 2)"/>
    </g>
</svg>
