<svg xmlns="http://www.w3.org/2000/svg" width="408" height="408"><g transform="translate(-316 -306)"><circle cx="204" cy="204" r="204" transform="translate(316 306)" fill="#fafafa"/><g transform="translate(388 385)"><path d="M217.942 120.274l-20.644-8.493 39.852-96.95a11.179 11.179 0 0 1 14.569-6.076 11.179 11.179 0 0 1 6.079 14.568z" fill="#06b1b5"/><path d="M217.942 124.781a5.217 5.217 0 0 1-1.7-.327l-20.644-8.493a4.453 4.453 0 0 1-2.417-5.814l39.852-96.95a15.567 15.567 0 0 1 8.431-8.493 15.2 15.2 0 0 1 11.955 0 15.627 15.627 0 0 1 8.493 20.383l-39.852 96.95a4.465 4.465 0 0 1-4.118 2.744zm-14.83-15.418l12.347 5.1 38.153-92.835a6.787 6.787 0 0 0-3.659-8.754 6.87 6.87 0 0 0-5.1 0 6.585 6.585 0 0 0-3.593 3.659z" fill="#602f75"/><path d="M177.829 120.274l-20.644-8.493 39.852-96.95a11.179 11.179 0 0 1 14.569-6.076 11.179 11.179 0 0 1 6.079 14.568z" fill="#fff"/><path d="M177.83 124.847a4.908 4.908 0 0 1-1.7-.327l-20.644-8.493a4.62 4.62 0 0 1-2.483-2.483 4.541 4.541 0 0 1 0-3.463l39.852-96.95a15.7 15.7 0 0 1 20.514-8.492 15.73 15.73 0 0 1 8.559 20.45l-39.852 96.95a4.671 4.671 0 0 1-4.246 2.808zm-14.7-15.483l12.217 5.03 38.153-92.7a6.586 6.586 0 0 0-3.593-8.624 6.606 6.606 0 0 0-8.624 3.593z" fill="#602f75"/><path d="M236.366 169.467H53.506L44.621 66.898h214.023z" fill="#fff"/><path d="M236.366 173.91H53.506a4.469 4.469 0 0 1-4.443-4.054L40.178 67.29a4.364 4.364 0 0 1 1.176-3.4 4.453 4.453 0 0 1 3.267-1.434h214.088a4.4 4.4 0 0 1 3.462 1.633 4.51 4.51 0 0 1 .915 3.724l-22.278 102.569a4.6 4.6 0 0 1-4.442 3.528zm-178.744-8.885h175.151l20.383-93.684H49.455z" fill="#602f75"/><path d="M214.088 142.747h-136.8l-5.947-49.063h151.632z" fill="#ffd4d5"/><path d="M44.621 71.343a4.508 4.508 0 0 1-4.442-3.985l-4.051-36.195H4.442A4.391 4.391 0 0 1 0 26.785a4.447 4.447 0 0 1 4.442-4.442h35.67a4.46 4.46 0 0 1 4.442 3.985L49 66.443a4.462 4.462 0 0 1-3.92 4.9z" fill="#602f75"/><path d="M57.948 214.088a4.508 4.508 0 0 1-4.442-3.985l-4.442-40.113a4.437 4.437 0 0 1 8.82-.98l4.442 40.113a4.462 4.462 0 0 1-3.92 4.9.969.969 0 0 1-.458.065z" fill="#602f75"/><circle cx="17.835" cy="17.835" r="17.835" transform="translate(44.621 209.646)" fill="#fff"/><path d="M62.456 249.759a22.31 22.31 0 1 1 22.278-22.343 22.305 22.305 0 0 1-22.278 22.343zm0-35.67a13.393 13.393 0 1 0 13.392 13.392 13.411 13.411 0 0 0-13.392-13.393z" fill="#602f75"/><circle cx="17.835" cy="17.835" r="17.835" transform="translate(196.253 209.646)" fill="#fff"/><path d="M214.089 249.758a22.278 22.278 0 1 1 22.278-22.278 22.305 22.305 0 0 1-22.278 22.278zm0-35.67a13.393 13.393 0 1 0 13.393 13.393 13.411 13.411 0 0 0-13.393-13.393z" fill="#602f75"/><path d="M178.418 231.923H80.291a4.442 4.442 0 1 1 0-8.885h98.126a4.442 4.442 0 0 1 0 8.885z" fill="#602f75"/><path transform="translate(66.898 31.228)" fill="#fb4b63" d="M0 0H62.456V35.67H0z"/><path d="M129.356 71.341H66.898a4.447 4.447 0 0 1-4.442-4.442V31.228a4.447 4.447 0 0 1 4.442-4.442h62.458a4.447 4.447 0 0 1 4.442 4.442v35.67a4.447 4.447 0 0 1-4.442 4.443zm-58.015-8.885h53.506V35.671H71.341v26.785z" fill="#602f75"/><path d="M147.19 66.898h-31.228V20.056a15.614 15.614 0 0 1 15.614-15.614 15.614 15.614 0 0 1 15.614 15.614z" fill="#fff"/><path d="M147.189 71.341h-31.228a4.447 4.447 0 0 1-4.442-4.441V20.056a20.056 20.056 0 1 1 40.113 0V66.9a4.406 4.406 0 0 1-4.443 4.441zm-26.786-8.885h22.278v-42.4a11.172 11.172 0 1 0-22.343 0v42.4z" fill="#602f75"/><path d="M200.695 66.899a26.786 26.786 0 1 0-53.571 0z" fill="#fb4b63"/><path d="M200.695 71.34h-53.506a4.447 4.447 0 0 1-4.442-4.442 31.2 31.2 0 1 1 62.391 0 4.406 4.406 0 0 1-4.443 4.442zm-48.606-8.885h43.706a22.306 22.306 0 0 0-43.706 0z" fill="#602f75"/></g></g></svg>