<svg xmlns="http://www.w3.org/2000/svg" width="408" height="408"><g transform="translate(-316 -1035)"><circle cx="204" cy="204" r="204" transform="translate(316 1035)" fill="#fafafa"/><g transform="translate(451 1113.631)"><path d="M134.292 129.612v106.552a9.234 9.234 0 0 1-9.224 9.224H13.836a9.234 9.234 0 0 1-9.224-9.224V13.836a9.234 9.234 0 0 1 9.224-9.224h111.232a9.234 9.234 0 0 1 9.224 9.224v44.018" fill="#ffd4d5"/><path d="M125.068 250H13.836A13.851 13.851 0 0 1 0 236.164V13.836A13.894 13.894 0 0 1 13.836 0h111.232A13.851 13.851 0 0 1 138.9 13.836v44.018a4.612 4.612 0 1 1-9.224 0V13.836a4.617 4.617 0 0 0-4.612-4.612H13.836a4.617 4.617 0 0 0-4.612 4.612v222.328a4.617 4.617 0 0 0 4.612 4.612h111.232a4.617 4.617 0 0 0 4.612-4.612V129.612a4.612 4.612 0 0 1 9.224 0v106.552A13.851 13.851 0 0 1 125.068 250z" fill="#602f75"/><g transform="translate(134.292 74.064)"><path fill="none" d="M0 0L0 39.406"/></g><path d="M134.292 118.082a4.617 4.617 0 0 1-4.612-4.612V74.132a4.612 4.612 0 0 1 9.224 0v39.338a4.661 4.661 0 0 1-4.612 4.612z" fill="#602f75"/><path transform="translate(18.516 18.516)" fill="#fff" d="M0 0H101.872V180.548H0z"/><path d="M120.388 203.744H18.516a4.617 4.617 0 0 1-4.612-4.612V18.516a4.617 4.617 0 0 1 4.612-4.612h101.872A4.617 4.617 0 0 1 125 18.516v180.548a4.632 4.632 0 0 1-4.612 4.68zm-97.26-9.292h92.576V23.128H23.128z" fill="#602f75"/><g transform="translate(55.548 208.356)" fill="#06b1b5"><circle cx="9.292" cy="9.292" r="9.292" transform="translate(4.612 4.612)"/><path d="M13.9 27.808a13.9 13.9 0 1 1 13.9-13.9 13.923 13.923 0 0 1-13.9 13.9zm0-18.516a4.612 4.612 0 1 0 4.612 4.612A4.617 4.617 0 0 0 13.9 9.292z"/></g><path d="M101.872 60.16H74.064a4.612 4.612 0 1 1 0-9.224h27.808a4.612 4.612 0 0 1 0 9.224z" fill="#602f75"/><path d="M43.46 68.102a4.127 4.127 0 0 1-2.006-.99l-10.063-9.636a3.872 3.872 0 1 1 5.35-5.597l6.73 6.41 13.525-20.68a3.874 3.874 0 0 1 6.48 4.241L47.37 66.44a3.91 3.91 0 0 1-2.776 1.744 8.493 8.493 0 0 1-1.133-.082z" fill="#fb4b63"/><path d="M101.872 115.776H74.064a4.612 4.612 0 1 1 0-9.224h27.808a4.612 4.612 0 0 1 0 9.224z" fill="#602f75"/><path d="M101.872 171.324H74.064a4.612 4.612 0 1 1 0-9.224h27.808a4.612 4.612 0 0 1 0 9.224z" fill="#602f75"/><path d="M43.46 123.664a4.127 4.127 0 0 1-2.006-.99l-10.063-9.636a3.872 3.872 0 1 1 5.35-5.597l6.73 6.41 13.525-20.68a3.874 3.874 0 0 1 6.48 4.241l-16.107 24.59a3.91 3.91 0 0 1-2.776 1.744 8.493 8.493 0 0 1-1.133-.082z" fill="#fb4b63"/><path d="M43.46 179.225a4.127 4.127 0 0 1-2.006-.99l-10.063-9.636a3.872 3.872 0 1 1 5.35-5.597l6.73 6.41 13.525-20.68a3.874 3.874 0 0 1 6.48 4.241l-16.107 24.59a3.91 3.91 0 0 1-2.776 1.744 8.493 8.493 0 0 1-1.133-.082z" fill="#fb4b63"/></g></g></svg>