<svg xmlns="http://www.w3.org/2000/svg" width="408" height="408"><g transform="translate(-1182 -674)"><circle cx="204" cy="204" r="204" transform="translate(1182 674)" fill="#fafafa"/><g transform="translate(1226 787.804)"><path d="M79.967 93.735V29.219A24.221 24.221 0 0 1 104.206 4.98h101.5a24.221 24.221 0 0 1 24.239 24.239v90.513a.194.194 0 0 1-.22.22H79.967" fill="#fff"/><path d="M229.724 125H79.968a4.98 4.98 0 1 1 0-9.959h145V29.219a19.283 19.283 0 0 0-19.26-19.26h-101.5a19.283 19.283 0 0 0-19.26 19.26v64.516a4.98 4.98 0 0 1-9.959 0V29.219A29.253 29.253 0 0 1 104.207 0h101.5a29.253 29.253 0 0 1 29.219 29.219v90.513a5.331 5.331 0 0 1-5.202 5.268z" fill="#602f75"/><path d="M59.975 15.012H19.992a4.98 4.98 0 0 1 0-9.959h39.983a4.98 4.98 0 0 1 0 9.959z" fill="#ffd4d5"/><path d="M59.976 39.984H44.964a4.98 4.98 0 1 1 0-9.959h15.012a4.98 4.98 0 1 1 0 9.959z" fill="#ffd4d5"/><path d="M30.024 39.984H4.98a4.98 4.98 0 1 1 0-9.959h25.044a4.98 4.98 0 0 1 0 9.959z" fill="#ffd4d5"/><path d="M59.976 64.955H39.984a4.98 4.98 0 1 1 0-9.959h19.992a4.98 4.98 0 0 1 0 9.959z" fill="#ffd4d5"/><path d="M297.095 154.951H79.967v-35h235v17.136a17.892 17.892 0 0 1-17.872 17.864z" fill="#06b1b5"/><path d="M297.095 160.008H79.968a4.985 4.985 0 0 1-4.98-4.98v-35a4.985 4.985 0 0 1 4.98-4.98h235a4.985 4.985 0 0 1 4.98 4.98v17.136a22.924 22.924 0 0 1-22.853 22.844zM85.021 149.976h212.074a12.908 12.908 0 0 0 12.893-12.889v-12.083H85.021z" fill="#602f75"/><path d="M229.943 39.984h35.517a49.536 49.536 0 0 1 49.5 49.5v30.464h-85.017z" fill="#fb4b63"/><path d="M314.963 125.004h-85.02a4.985 4.985 0 0 1-4.98-4.98v-80.04a4.985 4.985 0 0 1 4.98-4.98h35.52a54.568 54.568 0 0 1 54.483 54.483v30.464a5 5 0 0 1-4.983 5.053zm-79.967-10.033h74.987V89.487a44.6 44.6 0 0 0-44.52-44.524h-30.467z" fill="#602f75"/><path d="M299.955 90h-55V59.976h24.972A30.018 30.018 0 0 1 299.955 90z" fill="#fff"/><path d="M299.952 94.98h-55a4.985 4.985 0 0 1-4.98-4.98V59.976a4.985 4.985 0 0 1 4.98-4.98h24.972a35.05 35.05 0 0 1 35 35 4.939 4.939 0 0 1-4.972 4.984zm-50.016-9.959h44.524a25.036 25.036 0 0 0-24.459-19.992h-19.992v19.992z" fill="#602f75"/><circle cx="19.992" cy="19.992" r="19.992" transform="translate(99.959 134.963)" fill="#fff"/><path d="M119.952 180a24.972 24.972 0 1 1 24.972-24.971A25 25 0 0 1 119.952 180zm0-40.057a15.012 15.012 0 1 0 15.012 15.014 15.033 15.033 0 0 0-15.012-15.014z" fill="#602f75"/><circle cx="19.992" cy="19.992" r="19.992" transform="translate(254.988 134.963)" fill="#fff"/><g fill="#602f75"><path d="M274.98 180a24.972 24.972 0 1 1 24.972-24.971A25 25 0 0 1 274.98 180zm0-40.057a15.012 15.012 0 1 0 15.012 15.014 15.033 15.033 0 0 0-15.012-15.014z"/><path d="M314.963 180H10.033a4.98 4.98 0 0 1 0-9.959h304.93a4.98 4.98 0 0 1 0 9.959z"/></g></g></g></svg>