<svg xmlns="http://www.w3.org/2000/svg" width="18" height="18" viewBox="0 0 18 18"><g transform="translate(1.5 1.5)"><path d="M4.248,15a4.125,4.125,0,0,1-3.081-1.238A4.533,4.533,0,0,1,0,10.563V4.437a4.533,4.533,0,0,1,1.168-3.2A4.127,4.127,0,0,1,4.248,0h6.5a4.127,4.127,0,0,1,3.082,1.238A4.533,4.533,0,0,1,15,4.437v6.126a4.531,4.531,0,0,1-1.168,3.2A4.127,4.127,0,0,1,10.75,15ZM1.125,4.437v6.126a3.019,3.019,0,0,0,3.123,3.312h6.5a3.02,3.02,0,0,0,3.125-3.312V4.437a3.434,3.434,0,0,0-.845-2.41,3.03,3.03,0,0,0-2.279-.9h-6.5A3.019,3.019,0,0,0,1.125,4.437ZM8.963,9.744,8.9,9.69l-1.4-1.4-1.4,1.4a.562.562,0,0,1-.85-.732L5.3,8.892l1.4-1.4-1.4-1.4a.562.562,0,0,1,.732-.85L6.1,5.3,7.5,6.7,8.9,5.3a.562.562,0,0,1,.85.732l-.055.063-1.4,1.4,1.4,1.4a.562.562,0,0,1-.732.85Z" fill="#161616"/></g></svg>