<svg xmlns="http://www.w3.org/2000/svg" width="18" height="18" viewBox="0 0 18 18"><g transform="translate(2.25 1.5)"><path d="M3.854,15a5.206,5.206,0,0,1-.878-.071L2.812,14.9A3.335,3.335,0,0,1,.739,13.634,4.16,4.16,0,0,1,0,11.093V3.907a5.573,5.573,0,0,1,.045-.72A3.487,3.487,0,0,1,3.854,0H9.647A3.56,3.56,0,0,1,13.5,3.849v7.244A3.566,3.566,0,0,1,9.647,15ZM1.078,3.907v7.186a2.477,2.477,0,0,0,2.776,2.814H9.64a2.475,2.475,0,0,0,2.769-2.814V3.907A2.475,2.475,0,0,0,9.64,1.093H3.854A2.477,2.477,0,0,0,1.078,3.907Zm2.959,7.312a.543.543,0,0,1,0-1.086H9.445a.543.543,0,0,1,0,1.086ZM9.445,8.047H4.036a.551.551,0,0,1,0-1.094H9.445a.541.541,0,0,1,.518.254.559.559,0,0,1,0,.585.54.54,0,0,1-.518.254Zm-5.4-3.172a.551.551,0,0,1,0-1.093H6.1a.551.551,0,0,1,0,1.093Z" fill="#161616"/></g></svg>