<svg xmlns="http://www.w3.org/2000/svg" width="18" height="18" viewBox="0 0 18 18"><g transform="translate(3 1.5)"><path d="M5.007,14.973l-.213,0-.108,0a1.661,1.661,0,0,1-.3-.035,11.55,11.55,0,0,1-1.75-.254l-.192-.041A2.971,2.971,0,0,1,.211,13.211,2.2,2.2,0,0,1,0,12.272a2.157,2.157,0,0,1,.215-.948,3.25,3.25,0,0,1,2.4-1.461,12.558,12.558,0,0,1,1.754-.248C4.911,9.568,5.459,9.545,6,9.545s1.089.024,1.627.071l.346.029a12.914,12.914,0,0,1,1.4.219,3.083,3.083,0,0,1,2.411,1.472,2.184,2.184,0,0,1,0,1.878,3.069,3.069,0,0,1-2.4,1.462l-.351.073a11.785,11.785,0,0,1-1.41.184c-.537.046-1.081.069-1.619.069C5.672,15,5.335,14.991,5.007,14.973ZM4.457,10.7a11.646,11.646,0,0,0-1.617.229,2.407,2.407,0,0,0-1.654.876,1.063,1.063,0,0,0-.1.468,1.089,1.089,0,0,0,.1.47c.191.4.769.7,1.671.873l.265.056a11.63,11.63,0,0,0,1.405.187,1.38,1.38,0,0,0,.215.025l.295,0c.322.018.649.026.972.026.508,0,1.025-.022,1.535-.065a10.758,10.758,0,0,0,1.621-.236l.169-.036c.8-.18,1.307-.468,1.48-.831a1.1,1.1,0,0,0,0-.944c-.184-.387-.756-.69-1.656-.875A11.681,11.681,0,0,0,7.542,10.7H7.533C7.027,10.652,6.512,10.63,6,10.63S4.971,10.653,4.457,10.7ZM2.019,4A3.985,3.985,0,1,1,6,8,4,4,0,0,1,2.019,4ZM3.1,4A2.9,2.9,0,1,0,6,1.086,2.912,2.912,0,0,0,3.1,4Z" transform="translate(0)" fill="rgba(22,22,22,0.85)"/></g></svg>